<svg width="36" height="36" viewBox="0 0 36 36" fill="none" xmlns="http://www.w3.org/2000/svg">
<g clip-path="url(#clip0_154_38)">
<path d="M17.3125 22.1222C17.1999 22.1222 17.1133 22.1222 17.0267 22.1222C14.853 22.1222 12.6837 22.1222 10.51 22.1222C9.56605 22.1222 8.99881 21.5567 8.99448 20.62C8.99448 19.6704 8.99448 18.7207 8.99448 17.7711C8.99448 17.715 8.99015 17.6545 8.99881 17.5984C9.02912 17.4128 9.13737 17.3006 9.33222 17.2876C9.50976 17.2747 9.66564 17.4128 9.68296 17.5984C9.69595 17.7322 9.68729 17.8704 9.68729 18.0085C9.68729 18.9063 9.68296 19.8085 9.68729 20.7063C9.68729 21.138 9.97307 21.4272 10.4061 21.4272C12.6577 21.4315 14.9093 21.4272 17.1609 21.4272C17.2042 21.4272 17.2432 21.4229 17.3082 21.4186C17.3082 20.8617 17.2952 20.3178 17.3125 19.774C17.3168 19.5797 17.3601 19.3682 17.4467 19.1955C17.6502 18.7898 18.1006 18.5912 18.5855 18.6862C18.8497 18.738 19.1008 18.8502 19.3736 18.9409C19.3736 18.9322 19.3823 18.8977 19.3823 18.8589C19.3823 18.2675 19.3779 17.6804 19.3866 17.0891C19.3866 16.9682 19.3563 16.9207 19.235 16.8776C18.6462 16.6876 18.2738 16.1265 18.356 15.5783C18.4426 14.9783 18.9579 14.5294 19.5944 14.525C20.612 14.5164 21.6296 14.5164 22.6471 14.525C23.3226 14.5294 23.8725 15.0689 23.8855 15.7207C23.8985 16.3509 23.3616 16.9035 22.6904 16.9337C22.4046 16.9466 22.1189 16.938 21.8201 16.938C21.8201 17.5553 21.8201 18.1509 21.8201 18.7639C22.4349 18.5437 22.9459 18.6862 23.3443 19.2214C23.8812 18.902 24.4051 18.9322 24.9117 19.3509C24.9117 17.0416 24.9117 14.7581 24.9117 12.466C19.8412 12.466 14.7794 12.466 9.68296 12.466C9.68296 12.5394 9.68296 12.6128 9.68296 12.6905C9.68296 13.8258 9.68296 14.9653 9.68296 16.1006C9.68296 16.1653 9.68729 16.2301 9.67863 16.2948C9.64399 16.4804 9.53141 16.5927 9.34088 16.597C9.15036 16.597 9.03345 16.4848 8.99881 16.2991C8.98582 16.2344 8.99448 16.1696 8.99448 16.1049C8.99448 14.2358 8.99448 12.3624 8.99448 10.4934C9.00314 9.56964 9.57471 8.99986 10.5013 8.99986C12.6101 8.99986 14.7145 8.99986 16.8232 8.99986C16.8882 8.99986 16.9531 8.99554 17.0181 9.00417C17.1913 9.03007 17.3212 9.18115 17.3125 9.3495C17.3038 9.53079 17.1999 9.64302 17.0267 9.68187C16.9574 9.69482 16.8838 9.69051 16.8102 9.69051C14.7188 9.69051 12.6231 9.69051 10.5316 9.69051C9.94276 9.69051 9.69162 9.94087 9.69162 10.5322C9.69162 10.9337 9.69162 11.3351 9.69162 11.7495C14.7708 11.7495 19.8369 11.7495 24.9161 11.7495C24.9204 11.702 24.9334 11.6459 24.9334 11.5941C24.9334 11.2272 24.9334 10.8603 24.9334 10.4934C24.9334 9.9495 24.6693 9.69051 24.1193 9.69051C22.7121 9.69051 21.3048 9.69051 19.8975 9.69051C19.8239 9.69051 19.7503 9.69482 19.681 9.68187C19.5078 9.65166 19.3823 9.50058 19.3953 9.33223C19.4082 9.15094 19.5122 9.04302 19.6897 9.00849C19.759 8.99554 19.8326 8.99986 19.9062 8.99986C21.3048 8.99986 22.7077 8.99986 24.1063 8.99986C25.059 8.99986 25.6262 9.56101 25.6262 10.5106C25.6262 13.4804 25.6262 16.4545 25.6262 19.4243C25.6262 19.5106 25.6262 19.5927 25.6262 19.6919C25.7604 19.7006 25.8817 19.7006 26.0029 19.7222C26.5355 19.8214 26.9902 20.2617 26.9945 20.8013C27.0031 21.7553 26.9598 22.7092 26.9209 23.6632C26.9122 23.8747 26.8299 24.0819 26.7607 24.2891C26.6957 24.4876 26.5138 24.5783 26.3363 24.5222C26.1631 24.4704 26.0462 24.302 26.1068 24.1164C26.3796 23.2919 26.3103 22.4373 26.319 21.5912C26.319 21.384 26.3233 21.1725 26.319 20.9653C26.3147 20.6459 26.0982 20.4085 25.8124 20.3955C25.5353 20.3826 25.3188 20.5898 25.2798 20.9049C25.2495 21.1294 25.1109 21.2632 24.9204 21.2589C24.7299 21.2502 24.5913 21.1035 24.587 20.879C24.5826 20.6761 24.587 20.4776 24.587 20.2747C24.5826 19.9553 24.3705 19.7178 24.0847 19.7049C23.8032 19.6919 23.5911 19.8905 23.5478 20.2099C23.5175 20.4344 23.3832 20.5725 23.1927 20.5639C22.9935 20.5596 22.8636 20.4042 22.855 20.1668C22.8506 20.0675 22.8593 19.9639 22.8506 19.8646C22.829 19.5797 22.5995 19.3596 22.331 19.3553C22.0626 19.3509 21.8547 19.5495 21.8157 19.8387C21.7811 20.0977 21.6425 20.2358 21.439 20.2186C21.2399 20.2013 21.1229 20.0502 21.1229 19.8042C21.1229 18.8027 21.1229 17.8056 21.1229 16.8042C21.1229 16.5409 21.0017 16.3639 20.7809 16.2819C20.5774 16.2085 20.3392 16.2517 20.2223 16.4416C20.14 16.5754 20.0881 16.7481 20.0881 16.9035C20.0794 18.4488 20.0837 19.9984 20.0837 21.5437C20.0837 21.5999 20.0837 21.6603 20.0837 21.7164C20.0794 21.9668 19.9408 22.1222 19.733 22.1222C19.5252 22.1178 19.3953 21.9624 19.3909 21.7078C19.3866 21.2675 19.3953 20.8315 19.3866 20.3912C19.3779 19.8776 19.0229 19.4675 18.5249 19.3725C18.1785 19.3078 18.0053 19.4545 18.001 19.8085C18.001 20.7927 17.988 21.7812 18.0053 22.7653C18.027 24.1941 18.6245 25.3423 19.7633 26.2142C19.8196 26.2574 19.8845 26.2919 19.9365 26.3437C20.0751 26.4776 20.0924 26.6373 19.9841 26.7927C19.8759 26.9481 19.7157 26.9783 19.5425 26.8963C19.4905 26.8704 19.4429 26.8358 19.3996 26.8013C18.0573 25.8042 17.3601 24.4704 17.3082 22.8042C17.3082 22.584 17.3125 22.3725 17.3125 22.1222ZM19.5035 16.2344C19.5165 16.2258 19.5295 16.2171 19.5381 16.2085C20.0664 15.2977 21.2485 15.4013 21.6685 16.1696C21.6902 16.2085 21.7551 16.2473 21.8028 16.2473C22.1059 16.2517 22.409 16.2603 22.7121 16.243C23.0108 16.2258 23.2273 15.9883 23.2187 15.725C23.21 15.466 22.9935 15.22 22.7207 15.22C21.6772 15.2114 20.6293 15.2114 19.5858 15.22C19.2957 15.2243 19.0705 15.4445 19.0532 15.6948C19.0315 15.9495 19.2134 16.161 19.5035 16.2344Z" fill="#E38C0F"/>
<path d="M14.0099 17.6331C13.0703 17.6331 12.135 17.6331 11.1953 17.6331C10.8446 17.6331 10.732 17.5209 10.732 17.167C10.732 16.0965 10.732 15.0216 10.732 13.9511C10.732 13.5972 10.8403 13.4893 11.1997 13.4893C13.0832 13.4893 14.9668 13.4893 16.8504 13.4893C17.2054 13.4893 17.3137 13.6015 17.3137 13.9554C17.3137 15.0259 17.3137 16.1008 17.3137 17.1713C17.3137 17.5252 17.2011 17.6331 16.8461 17.6331C15.9021 17.6331 14.9582 17.6331 14.0099 17.6331ZM11.4378 14.1929C11.4378 15.1123 11.4378 16.0188 11.4378 16.9295C13.1698 16.9295 14.8889 16.9295 16.6036 16.9295C16.6036 16.0058 16.6036 15.0993 16.6036 14.1929C14.8759 14.1929 13.1612 14.1929 11.4378 14.1929Z" fill="#E38C0F"/>
<path d="M14.0012 19.0144C13.2002 19.0144 12.3991 19.0144 11.598 19.0144C11.5417 19.0144 11.4811 19.0187 11.4248 19.0144C11.2213 19.0015 11.0784 18.8547 11.0784 18.6691C11.0784 18.4835 11.2213 18.3324 11.4248 18.3281C11.7193 18.3195 12.018 18.3238 12.3125 18.3238C13.6894 18.3238 15.0707 18.3238 16.4477 18.3238C16.5126 18.3238 16.5776 18.3195 16.6425 18.3281C16.8331 18.3454 16.9673 18.4921 16.9673 18.6691C16.9673 18.8461 16.8331 18.9928 16.6425 19.0101C16.5862 19.0144 16.5256 19.0144 16.4693 19.0144C15.6466 19.0144 14.8239 19.0144 14.0012 19.0144Z" fill="#E38C0F"/>
<path d="M12.9836 19.7051C13.4729 19.7051 13.9666 19.7051 14.4559 19.7051C14.7243 19.7051 14.8889 19.8389 14.8889 20.0504C14.8889 20.2619 14.7287 20.3957 14.4559 20.3957C13.4729 20.3957 12.4944 20.3957 11.5114 20.3957C11.243 20.3957 11.0784 20.2619 11.0784 20.0504C11.0784 19.8346 11.2386 19.7051 11.5114 19.7051C12.0051 19.7051 12.4944 19.7051 12.9836 19.7051Z" fill="#E38C0F"/>
<path d="M24.5449 27C24.4496 26.9051 24.3284 26.8274 24.2721 26.7151C24.1941 26.5641 24.2807 26.4303 24.4063 26.3223C24.6964 26.0763 24.9822 25.8259 25.2593 25.5669C25.3589 25.4763 25.4282 25.3511 25.5235 25.2562C25.6534 25.118 25.8136 25.1008 25.9738 25.2044C26.121 25.2993 26.1643 25.5108 26.056 25.6619C25.701 26.1669 25.255 26.5813 24.7354 26.9137C24.6964 26.9396 24.6401 26.9482 24.5968 26.9612C24.5795 26.9741 24.5622 26.9871 24.5449 27Z" fill="#E38C0F"/>
<path d="M18.6993 9.35398C18.695 9.5396 18.5304 9.69499 18.3442 9.69067C18.1581 9.68636 18.0022 9.52233 18.0065 9.33672C18.0108 9.15111 18.171 8.99571 18.3616 9.00003C18.5478 9.00866 18.7036 9.16837 18.6993 9.35398Z" fill="#E38C0F"/>
<path d="M11.4248 10.7309C11.4248 10.9166 11.2646 11.072 11.0784 11.072C10.8922 11.072 10.7364 10.9122 10.7364 10.7266C10.7364 10.541 10.8966 10.3856 11.0828 10.3856C11.269 10.3856 11.4248 10.5453 11.4248 10.7309Z" fill="#E38C0F"/>
<path d="M12.8104 10.3856C12.9966 10.3856 13.1568 10.5453 13.1525 10.7309C13.1525 10.9166 12.9923 11.0763 12.8061 11.072C12.6199 11.072 12.4597 10.9122 12.464 10.7266C12.4684 10.541 12.6243 10.3856 12.8104 10.3856Z" fill="#E38C0F"/>
<path d="M14.5381 10.3856C14.7243 10.3813 14.8845 10.5367 14.8889 10.7223C14.8932 10.9079 14.7373 11.0677 14.5511 11.072C14.3649 11.0763 14.2047 10.9209 14.2004 10.7353C14.1961 10.5497 14.3476 10.39 14.5381 10.3856Z" fill="#E38C0F"/>
</g>
<circle cx="18" cy="18" r="17.5" stroke="#E38C0F"/>
<defs>
<clipPath id="clip0_154_38">
<rect width="18" height="18" fill="white" transform="translate(9 9)"/>
</clipPath>
</defs>
</svg>
