<svg width="36" height="36" viewBox="0 0 36 36" fill="none" xmlns="http://www.w3.org/2000/svg">
<circle cx="18" cy="18" r="17.5" stroke="#E38C0F"/>
<path d="M26.6824 11.7501L18.2118 8.0442C18.145 8.01505 18.0729 8 18 8C17.9271 8 17.855 8.01505 17.7882 8.0442L9.31765 11.7501C9.22328 11.7913 9.14297 11.8591 9.08655 11.9452C9.03013 12.0313 9.00005 12.1321 9 12.235V22.8233C9 22.9209 9.027 23.0166 9.07801 23.0999C9.12903 23.1831 9.20207 23.2506 9.28906 23.295L17.7596 27.6044C17.8341 27.6423 17.9165 27.6621 18 27.6621C18.0825 27.6619 18.1639 27.6427 18.2377 27.606L26.7083 23.3495C26.796 23.3054 26.8698 23.2378 26.9213 23.1542C26.9728 23.0706 27 22.9744 27 22.8762V12.235C26.9999 12.1321 26.9699 12.0313 26.9135 11.9452C26.857 11.8591 26.7767 11.7913 26.6824 11.7501ZM18 9.10673L25.1497 12.235L18 15.3633L16.1418 14.5501L18.9694 13.3129C19.0636 13.2716 19.1438 13.2038 19.2001 13.1176C19.2564 13.0315 19.2864 12.9309 19.2864 12.828C19.2864 12.7251 19.2564 12.6244 19.2001 12.5383C19.1438 12.4522 19.0636 12.3843 18.9694 12.343L16.6976 11.3525C16.6309 11.3233 16.5588 11.3083 16.4859 11.3083C16.413 11.3083 16.3409 11.3233 16.2741 11.3525L12.5518 12.9794L10.8529 12.235L18 9.10673ZM13.2353 14.4342L14.2941 14.8974V17.202L13.2353 16.6726V14.4342ZM13.8706 13.5575L16.4838 12.4156L17.4314 12.829L14.8235 13.972L13.8706 13.5575ZM10.0588 13.0445L12.1765 13.971V16.9997C12.1764 17.0981 12.2038 17.1946 12.2555 17.2783C12.3072 17.3619 12.3812 17.4296 12.4692 17.4736L14.5869 18.5324C14.6676 18.5727 14.7573 18.5918 14.8475 18.5877C14.9376 18.5836 15.0253 18.5565 15.102 18.509C15.1788 18.4616 15.2421 18.3953 15.286 18.3164C15.33 18.2376 15.353 18.1488 15.3529 18.0586V15.3586L17.4706 16.285V26.2692L10.0588 22.4987V13.0445ZM18.5294 26.274V16.2871L25.9412 13.0445V22.5496L18.5294 26.274Z" fill="#E38C0F"/>
<path d="M21.4719 22.4172L19.3506 23.4834C19.2251 23.5466 19.1299 23.657 19.0859 23.7904C19.0418 23.9238 19.0526 24.0692 19.1158 24.1947C19.1789 24.3201 19.2894 24.4154 19.4228 24.4594C19.5562 24.5034 19.7016 24.4927 19.827 24.4295L21.9484 23.3633C22.0738 23.3001 22.1691 23.1896 22.2131 23.0563C22.2571 22.9229 22.2464 22.7774 22.1832 22.652C22.12 22.5265 22.0096 22.4313 21.8762 22.3873C21.7428 22.3433 21.5974 22.354 21.4719 22.4172Z" fill="#E38C0F"/>
<path d="M19.5882 22.368C19.6705 22.368 19.7517 22.3487 19.8254 22.3118L21.9165 21.261C22.042 21.1978 22.1372 21.0873 22.1812 20.954C22.2253 20.8206 22.2145 20.6752 22.1513 20.5497C22.0881 20.4242 21.9777 20.329 21.8443 20.285C21.7109 20.241 21.5655 20.2517 21.4401 20.3149L19.3494 21.3658C19.243 21.4194 19.1578 21.5074 19.1076 21.6154C19.0574 21.7235 19.0451 21.8453 19.0727 21.9612C19.1003 22.0772 19.1662 22.1804 19.2598 22.2542C19.3533 22.328 19.469 22.3681 19.5882 22.368Z" fill="#E38C0F"/>
</svg>
