<svg width="36" height="36" viewBox="0 0 36 36" fill="none" xmlns="http://www.w3.org/2000/svg">
<circle cx="18" cy="18" r="17.5" stroke="#E38C0F"/>
<g clip-path="url(#clip0_154_40)">
<path d="M22.7922 11.9842C22.8 11.9848 22.8079 11.9853 22.8159 11.9853C22.8294 11.9853 22.8429 11.9842 22.8562 11.9824C23.2106 11.9896 23.4942 12.2787 23.4947 12.6331C23.4947 12.7942 23.6252 12.9247 23.7863 12.9247C23.9473 12.9247 24.0779 12.7942 24.0779 12.6331C24.0772 12.0534 23.6737 11.5519 23.1075 11.4271V11.1469C23.1075 10.9859 22.9769 10.8553 22.8159 10.8553C22.6548 10.8553 22.5242 10.9859 22.5242 11.1469V11.4404C21.9256 11.6004 21.5383 12.1796 21.619 12.794C21.6998 13.4085 22.2235 13.8678 22.8432 13.8678C23.203 13.8678 23.4947 14.1596 23.4947 14.5194C23.4947 14.8791 23.203 15.1709 22.8432 15.1709C22.4834 15.1709 22.1917 14.8791 22.1917 14.5194C22.1917 14.3584 22.0612 14.2278 21.9001 14.2278C21.7391 14.2278 21.6085 14.3584 21.6085 14.5194C21.6092 15.0782 21.9845 15.567 22.5242 15.7121V16.0317C22.5242 16.1927 22.6548 16.3233 22.8159 16.3233C22.9769 16.3233 23.1075 16.1927 23.1075 16.0317V15.7255C23.7233 15.5907 24.1387 15.0134 24.0708 14.3866C24.003 13.7597 23.4737 13.2847 22.8432 13.2849C22.4933 13.285 22.2058 13.0087 22.192 12.6592C22.1783 12.3096 22.4433 12.0115 22.7922 11.9843V11.9842Z" fill="#E38C0F"/>
<path d="M22.8599 9.42944C21.0658 9.42944 19.5348 10.6001 18.9612 12.1676H11.723C11.5627 12.1676 11.4326 12.3121 11.4314 12.4723L11.3625 22.7026H9.29932C9.13827 22.7026 9 22.8193 9 22.9806V24.2788C9.0037 25.501 9.9663 26.505 11.1872 26.5603V26.5667H20.1912V26.5582C20.2641 26.5609 20.2942 26.5667 20.3403 26.5667H20.3466C21.6102 26.5647 22.6336 25.5397 22.6336 24.2761V17.7122C22.7065 17.7162 22.7837 17.7183 22.8592 17.7183C25.1422 17.7183 27.0001 15.8569 27.0001 13.5737C27.0001 11.2907 25.1431 9.42944 22.8599 9.42944ZM11.2981 25.9834H11.2963C10.3529 25.9822 9.58753 25.2194 9.58326 24.2758V23.2859H18.0405V24.2717C18.0409 24.8803 18.284 25.4637 18.7157 25.8927C18.7463 25.9234 18.7843 25.947 18.8164 25.9834H11.2981ZM22.0504 24.2758C22.0505 25.2176 21.288 25.9816 20.3463 25.9834H20.3407C19.3952 25.9817 18.6284 25.2174 18.6237 24.272V22.9806C18.6261 22.906 18.5977 22.8338 18.5448 22.7811C18.492 22.7284 18.4198 22.7001 18.3453 22.7026H11.9458L12.0127 12.7508H18.7993C18.7476 13.0178 18.7208 13.289 18.7194 13.5608C18.7188 14.1356 18.8387 14.7041 19.0714 15.2297H16.3169C16.1557 15.2297 16.0253 15.3603 16.0253 15.5213C16.0253 15.6824 16.1557 15.8129 16.3169 15.8129H19.3878C19.9894 16.759 20.9512 17.4186 22.0504 17.6393V24.2758ZM22.8599 17.1352C20.8954 17.1352 19.3027 15.5427 19.3028 13.578C19.3028 11.6134 20.8954 10.0208 22.86 10.0208C24.8245 10.0208 26.4171 11.6135 26.4171 13.578C26.4149 15.5417 24.8237 17.1331 22.8599 17.1352Z" fill="#E38C0F"/>
<path d="M14.445 17.1705C13.9302 17.1705 13.5116 17.5759 13.5116 18.0743C13.5116 18.5727 13.9302 18.9781 14.445 18.9781C14.9598 18.9781 15.3786 18.5727 15.3786 18.0743C15.3786 17.5759 14.9598 17.1705 14.445 17.1705ZM14.445 18.3949C14.2518 18.3949 14.0949 18.251 14.0949 18.0743C14.0949 17.8975 14.2519 17.7538 14.445 17.7538C14.6381 17.7538 14.7953 17.8976 14.7953 18.0743C14.7953 18.251 14.6381 18.3949 14.445 18.3949Z" fill="#E38C0F"/>
<path d="M16.0253 18.0731C16.0253 18.2341 16.1557 18.3647 16.3169 18.3647H20.2049C20.3659 18.3647 20.4965 18.2341 20.4965 18.0731C20.4965 17.912 20.3659 17.7814 20.2049 17.7814H16.3169C16.1557 17.7814 16.0253 17.912 16.0253 18.0731Z" fill="#E38C0F"/>
<path d="M14.445 14.6354C13.9302 14.6354 13.5116 15.041 13.5116 15.5394C13.5116 16.0378 13.9302 16.4432 14.445 16.4432C14.9598 16.4432 15.3786 16.0378 15.3786 15.5394C15.3786 15.041 14.9598 14.6354 14.445 14.6354ZM14.445 15.8599C14.2518 15.8599 14.0949 15.7161 14.0949 15.5394C14.0949 15.3627 14.2519 15.2187 14.445 15.2187C14.6381 15.2187 14.7953 15.3625 14.7953 15.5394C14.7953 15.7161 14.6381 15.86 14.445 15.86V15.8599Z" fill="#E38C0F"/>
<path d="M14.445 19.7053C13.9302 19.7053 13.5116 20.1107 13.5116 20.6091C13.5116 21.1075 13.9302 21.5129 14.445 21.5129C14.9598 21.5129 15.3786 21.1075 15.3786 20.6091C15.3786 20.1107 14.9598 19.7053 14.445 19.7053ZM14.445 20.9296C14.2518 20.9296 14.0949 20.786 14.0949 20.6091C14.0949 20.4324 14.2519 20.2886 14.445 20.2886C14.6381 20.2886 14.7953 20.4324 14.7953 20.6091C14.7953 20.7858 14.6381 20.9296 14.445 20.9296Z" fill="#E38C0F"/>
<path d="M20.2049 20.3332H16.3169C16.1557 20.3332 16.0253 20.4638 16.0253 20.6248C16.0253 20.7859 16.1557 20.9164 16.3169 20.9164H20.2049C20.3659 20.9164 20.4965 20.7859 20.4965 20.6248C20.4965 20.4638 20.3659 20.3332 20.2049 20.3332Z" fill="#E38C0F"/>
</g>
<defs>
<clipPath id="clip0_154_40">
<rect width="18" height="18" fill="white" transform="translate(9 9)"/>
</clipPath>
</defs>
</svg>
