<svg width="36" height="36" viewBox="0 0 36 36" fill="none" xmlns="http://www.w3.org/2000/svg">
<circle cx="18" cy="18" r="17.5" stroke="#E38C0F"/>
<path d="M11.0948 11.099V26.6911C11.0948 26.8567 11.229 26.991 11.3947 26.991H22.789C22.9545 26.991 23.0887 26.8567 23.0887 26.6911V14.0975C23.0887 14.0909 23.0855 14.0852 23.0849 14.0786C23.0834 14.0523 23.0782 14.0264 23.0696 14.0016C23.0662 13.9919 23.0639 13.9827 23.0597 13.9733C23.0451 13.9407 23.0249 13.9109 22.9997 13.8855L20.0012 10.887C19.9758 10.8617 19.9459 10.8414 19.913 10.827C19.904 10.8232 19.8949 10.8199 19.8855 10.8171C19.8604 10.8085 19.8344 10.8033 19.8078 10.8015C19.8027 10.8024 19.7968 10.7992 19.7905 10.7992H11.3947C11.229 10.7992 11.0948 10.9333 11.0948 11.099ZM22.0651 13.7976H20.0903V11.8228L22.0651 13.7976ZM11.6944 11.3988H19.4906V14.0975C19.4906 14.263 19.6249 14.3973 19.7904 14.3973H22.4891V26.3913H11.6944V11.3988Z" fill="#E38C0F"/>
<path d="M23.6885 24.5921V25.1918H24.588C24.7537 25.1918 24.8879 25.0577 24.8879 24.892V9.29988C24.8879 9.13426 24.7537 9 24.588 9H13.1937C13.0281 9 12.8939 9.13426 12.8939 9.29988V10.1994H13.4936V9.59964H24.2882V24.5921H23.6885Z" fill="#E38C0F"/>
<path d="M13.4936 14.997H20.6899V15.5966H13.4936V14.997Z" fill="#E38C0F"/>
<path d="M13.4936 13.1979H15.8924V13.7976H13.4936V13.1979Z" fill="#E38C0F"/>
<path d="M13.4936 16.7961H18.2912V17.3958H13.4936V16.7961Z" fill="#E38C0F"/>
<path d="M18.8909 16.7961H20.6899V17.3958H18.8909V16.7961Z" fill="#E38C0F"/>
<path d="M13.4936 18.5951H20.6899V19.1949H13.4936V18.5951Z" fill="#E38C0F"/>
<path d="M13.4936 22.1934H20.6899V22.7931H13.4936V22.1934Z" fill="#E38C0F"/>
<path d="M16.1922 20.3943H20.6899V20.9939H16.1922V20.3943Z" fill="#E38C0F"/>
<path d="M13.4936 20.3943H15.5925V20.9939H13.4936V20.3943Z" fill="#E38C0F"/>
<path d="M13.4936 23.9925H14.693V24.5921H13.4936V23.9925Z" fill="#E38C0F"/>
<path d="M15.2927 23.9925H20.6899V24.5921H15.2927V23.9925Z" fill="#E38C0F"/>
</svg>
